<?xml version="1.0" encoding="utf-8"?>
<!-- Generator: Adobe Illustrator 24.3.0, SVG Export Plug-In . SVG Version: 6.00 Build 0)  -->
<svg version="1.1" id="Layer_1" xmlns="http://www.w3.org/2000/svg" xmlns:xlink="http://www.w3.org/1999/xlink" x="0px" y="0px"
	 viewBox="0 0 25.71 25.71" style="enable-background:new 0 0 25.71 25.71;" xml:space="preserve">
<style type="text/css">
	.st0{fill:#87A70D;}
</style>
<g>
	<path class="st0" d="M14.48,10.18h-0.53v-1.4c0-1.93-1.57-3.51-3.51-3.51S6.93,6.85,6.93,8.78v1.4H6.41
		c-0.87,0-1.58,0.71-1.58,1.58v5.96c0,0.87,0.71,1.58,1.58,1.58h6.88c0.07-0.4,0.27-0.76,0.55-1.04c-0.46-0.63-0.56-1.5-0.16-2.24
		c0.54-1,1.38-1.78,2.38-2.22v-2.04C16.05,10.89,15.35,10.18,14.48,10.18z M8.34,8.78c0-1.16,0.94-2.11,2.11-2.11
		s2.11,0.94,2.11,2.11v1.4H8.34V8.78z"/>
	<path class="st0" d="M21.13,19.22c-0.34-0.18-0.77-0.06-0.95,0.28c-0.4,0.74-1.17,1.2-2.01,1.2c-0.43,0-0.84-0.13-1.19-0.35
		l0.33-0.33c0.15-0.15,0.2-0.38,0.11-0.57c-0.08-0.2-0.27-0.32-0.49-0.32h-1.75c-0.29,0-0.53,0.24-0.53,0.53v1.75
		c0,0.21,0.13,0.4,0.32,0.49c0.07,0.03,0.13,0.04,0.2,0.04c0.14,0,0.27-0.05,0.37-0.15l0.4-0.4c0.63,0.47,1.4,0.73,2.21,0.73
		c1.36,0,2.6-0.74,3.25-1.94C21.59,19.83,21.47,19.41,21.13,19.22L21.13,19.22z"/>
	<path class="st0" d="M21.34,14.96c-0.2-0.08-0.42-0.04-0.57,0.11l-0.4,0.4c-0.63-0.47-1.4-0.73-2.21-0.73
		c-1.36,0-2.6,0.75-3.25,1.95c-0.18,0.34-0.06,0.77,0.29,0.95c0.11,0.06,0.22,0.08,0.33,0.08c0.25,0,0.49-0.13,0.62-0.37
		c0.4-0.75,1.17-1.21,2.01-1.21c0.43,0,0.84,0.13,1.19,0.35l-0.33,0.33c-0.15,0.15-0.2,0.38-0.11,0.57s0.27,0.32,0.49,0.32h1.75
		c0.29,0,0.53-0.24,0.53-0.53v-1.75C21.67,15.23,21.54,15.04,21.34,14.96z"/>
</g>
</svg>
