<?xml version="1.0" encoding="utf-8"?>
<!-- Generator: Adobe Illustrator 24.3.0, SVG Export Plug-In . SVG Version: 6.00 Build 0)  -->
<svg version="1.1" id="Layer_1" xmlns="http://www.w3.org/2000/svg" xmlns:xlink="http://www.w3.org/1999/xlink" x="0px" y="0px"
	 viewBox="0 0 25.71 25.71" style="enable-background:new 0 0 25.71 25.71;" xml:space="preserve">
<style type="text/css">
	.st0{fill:#87A70D;}
</style>
<g>
	<g>
		<path class="st0" d="M9.34,13.22c0-2.05,1.66-3.72,3.72-3.72c2.05,0,3.72,1.66,3.72,3.72c0,2.05-1.66,3.72-3.72,3.72
			C11,16.93,9.34,15.27,9.34,13.22z"/>
	</g>
	<g>
		<g>
			<path class="st0" d="M6.85,13.89H5.38c-0.37,0-0.67-0.3-0.67-0.67c0-0.37,0.3-0.67,0.67-0.67h1.47c0.37,0,0.67,0.3,0.67,0.67
				C7.53,13.59,7.23,13.89,6.85,13.89z"/>
		</g>
		<g>
			<path class="st0" d="M20.76,13.89h-1.47c-0.37,0-0.67-0.3-0.67-0.67c0-0.37,0.3-0.67,0.67-0.67h1.47c0.37,0,0.67,0.3,0.67,0.67
				C21.43,13.59,21.13,13.89,20.76,13.89z"/>
		</g>
	</g>
	<g>
		<g>
			<path class="st0" d="M13.07,21.58c-0.37,0-0.67-0.3-0.67-0.67v-1.47c0-0.37,0.3-0.67,0.67-0.67c0.37,0,0.67,0.3,0.67,0.67v1.47
				C13.74,21.28,13.44,21.58,13.07,21.58z"/>
		</g>
		<g>
			<path class="st0" d="M13.07,7.67c-0.37,0-0.67-0.3-0.67-0.67V5.53c0-0.37,0.3-0.67,0.67-0.67c0.37,0,0.67,0.3,0.67,0.67V7
				C13.74,7.37,13.44,7.67,13.07,7.67z"/>
		</g>
	</g>
	<g>
		<g>
			<path class="st0" d="M7.63,19.33c-0.17,0-0.34-0.07-0.48-0.2c-0.26-0.26-0.26-0.69,0-0.95l1.04-1.04c0.26-0.26,0.69-0.26,0.95,0
				c0.26,0.26,0.26,0.69,0,0.95l-1.04,1.04C7.98,19.26,7.81,19.33,7.63,19.33z"/>
		</g>
		<g>
			<path class="st0" d="M17.46,9.5c-0.17,0-0.34-0.07-0.48-0.2c-0.26-0.26-0.26-0.69,0-0.95l1.04-1.04c0.26-0.26,0.69-0.26,0.95,0
				c0.26,0.26,0.26,0.69,0,0.95L17.94,9.3C17.81,9.43,17.64,9.5,17.46,9.5z"/>
		</g>
	</g>
	<g>
		<g>
			<path class="st0" d="M18.5,19.33c-0.17,0-0.34-0.07-0.48-0.2l-1.04-1.04c-0.26-0.26-0.26-0.69,0-0.95c0.26-0.26,0.69-0.26,0.95,0
				l1.04,1.04c0.26,0.26,0.26,0.69,0,0.95C18.85,19.26,18.68,19.33,18.5,19.33z"/>
		</g>
		<g>
			<path class="st0" d="M8.67,9.5C8.5,9.5,8.33,9.43,8.2,9.3L7.16,8.26C6.9,8,6.9,7.57,7.16,7.31c0.26-0.26,0.69-0.26,0.95,0
				l1.04,1.04c0.26,0.26,0.26,0.69,0,0.95C9.02,9.43,8.85,9.5,8.67,9.5z"/>
		</g>
	</g>
	<g>
		<g>
			<path class="st0" d="M6.85,13.89H5.38c-0.37,0-0.67-0.3-0.67-0.67c0-0.37,0.3-0.67,0.67-0.67h1.47c0.37,0,0.67,0.3,0.67,0.67
				C7.53,13.59,7.23,13.89,6.85,13.89z"/>
		</g>
		<g>
			<path class="st0" d="M20.76,13.89h-1.47c-0.37,0-0.67-0.3-0.67-0.67c0-0.37,0.3-0.67,0.67-0.67h1.47c0.37,0,0.67,0.3,0.67,0.67
				C21.43,13.59,21.13,13.89,20.76,13.89z"/>
		</g>
	</g>
	<g>
		<g>
			<path class="st0" d="M6.85,13.89H5.38c-0.37,0-0.67-0.3-0.67-0.67c0-0.37,0.3-0.67,0.67-0.67h1.47c0.37,0,0.67,0.3,0.67,0.67
				C7.53,13.59,7.23,13.89,6.85,13.89z"/>
		</g>
		<g>
			<path class="st0" d="M20.76,13.89h-1.47c-0.37,0-0.67-0.3-0.67-0.67c0-0.37,0.3-0.67,0.67-0.67h1.47c0.37,0,0.67,0.3,0.67,0.67
				C21.43,13.59,21.13,13.89,20.76,13.89z"/>
		</g>
	</g>
</g>
</svg>
