<svg xmlns="http://www.w3.org/2000/svg" viewBox="0 0 16 16"><defs><style>.cls-1{fill:#ff3535;}.cls-2{fill:none;}</style></defs><title>Asset 3</title><g id="Layer_2" data-name="Layer 2"><g id="Layer_2-2" data-name="Layer 2"><path class="cls-1" d="M11.4,5.26H9.47V5a1,1,0,0,0-1-1H7.37a1,1,0,0,0-1,1v.22H4.6a.48.48,0,0,0-.47.48.47.47,0,0,0,.47.47H5v4.41A1.38,1.38,0,0,0,6.34,12H9.5a1.38,1.38,0,0,0,1.38-1.38V6.21h.52a.47.47,0,0,0,.47-.47A.48.48,0,0,0,11.4,5.26ZM7.28,5A.09.09,0,0,1,7.37,5H8.44A.09.09,0,0,1,8.53,5v.22H7.28Zm2.66,5.58a.44.44,0,0,1-.44.43H6.34a.44.44,0,0,1-.44-.43V6.21h4Z"/><path class="cls-1" d="M8.89,6.71a.47.47,0,0,0-.47.48v3a.47.47,0,0,0,.47.47.48.48,0,0,0,.48-.47v-3A.48.48,0,0,0,8.89,6.71Z"/><path class="cls-1" d="M6.89,6.71a.47.47,0,0,0-.47.48v3a.48.48,0,0,0,1,0v-3A.47.47,0,0,0,6.89,6.71Z"/><rect class="cls-2" width="16" height="16"/></g></g></svg>