<svg xmlns="http://www.w3.org/2000/svg" viewBox="0 0 16 16"><defs><style>.cls-1{fill:#ffaf51;}.cls-2{fill:none;}</style></defs><title>Asset 1</title><g id="Layer_2" data-name="Layer 2"><g id="Layer_2-2" data-name="Layer 2"><path class="cls-1" d="M11.55,4.46a1.53,1.53,0,0,0-2.17,0L4.45,9.39a.44.44,0,0,0-.13.25L4,11.42a.46.46,0,0,0,.13.42.45.45,0,0,0,.34.15h.08l1.8-.28a.59.59,0,0,0,.27-.14l4.92-4.92h0A1.55,1.55,0,0,0,11.55,4.46ZM6.06,10.77l-1,.16.17-1L9.09,6.11l.81.82ZM10.87,6l-.29.29-.81-.82.29-.29a.58.58,0,0,1,.81,0A.57.57,0,0,1,10.87,6Z"/><rect class="cls-2" width="16" height="16"/></g></g></svg>